<svg width="15" height="14" viewBox="0 0 15 14" fill="none" xmlns="http://www.w3.org/2000/svg">
<path d="M4.37339 3.49998V1.74998C4.37339 1.58665 4.42976 1.44859 4.5425 1.33581C4.65523 1.22303 4.79324 1.16665 4.95651 1.16665H9.62151C9.78479 1.16665 9.9228 1.22303 10.0355 1.33581C10.1483 1.44859 10.2046 1.58665 10.2046 1.74998V3.49998H12.5371C12.7004 3.49998 12.8384 3.55637 12.9512 3.66915C13.0639 3.78192 13.1203 3.91998 13.1203 4.08331V12.25C13.1203 12.4133 13.0639 12.5514 12.9512 12.6641C12.8384 12.7769 12.7004 12.8333 12.5371 12.8333H2.04089C1.87761 12.8333 1.73961 12.7769 1.62687 12.6641C1.51413 12.5514 1.45776 12.4133 1.45776 12.25V4.08331C1.45776 3.91998 1.51413 3.78192 1.62687 3.66915C1.73961 3.55637 1.87761 3.49998 2.04089 3.49998H4.37339ZM2.62401 9.91665V11.6666H11.954V9.91665H2.62401ZM2.62401 8.74998H11.954V4.66665H2.62401V8.74998ZM5.53964 2.33331V3.49998H9.03839V2.33331H5.53964ZM6.70589 6.99998H7.87214V8.16665H6.70589V6.99998Z" fill="#0D9488"/>
</svg>
