<svg width="15" height="14" viewBox="0 0 15 14" fill="none" xmlns="http://www.w3.org/2000/svg">
<path d="M6.48434 8.15489V9.32156C5.85456 9.32156 5.26755 9.481 4.7233 9.79989C4.1946 10.111 3.77475 10.5271 3.46375 11.0482C3.14497 11.5927 2.98559 12.1838 2.98559 12.8216H1.81934C1.81934 11.9738 2.03315 11.1882 2.46077 10.4649C2.87285 9.75711 3.42876 9.19711 4.12851 8.78489C4.85159 8.36489 5.63686 8.15489 6.48434 8.15489ZM6.48434 7.57156C5.85456 7.57156 5.26755 7.41211 4.7233 7.09322C4.1946 6.78211 3.77475 6.36211 3.46375 5.83322C3.14497 5.28878 2.98559 4.69961 2.98559 4.06572C2.98559 3.43183 3.14497 2.84267 3.46375 2.29822C3.77475 1.77711 4.1946 1.361 4.7233 1.04989C5.26755 0.731 5.8565 0.571556 6.49017 0.571556C7.12383 0.571556 7.71279 0.731 8.25704 1.04989C8.77796 1.361 9.19392 1.77711 9.50492 2.29822C9.8237 2.84267 9.98309 3.43183 9.98309 4.06572C9.98309 4.69961 9.8237 5.28878 9.50492 5.83322C9.19392 6.36211 8.77796 6.78211 8.25704 7.09322C7.71279 7.41211 7.12189 7.57156 6.48434 7.57156ZM6.48434 6.40489C6.90419 6.40489 7.29294 6.29989 7.65059 6.08989C8.00824 5.87989 8.29202 5.596 8.50195 5.23822C8.71187 4.88044 8.81684 4.49156 8.81684 4.07156C8.81684 3.65156 8.71187 3.26267 8.50195 2.90489C8.29202 2.54711 8.00824 2.26322 7.65059 2.05322C7.29294 1.84322 6.90419 1.73822 6.48434 1.73822C6.06449 1.73822 5.67574 1.84322 5.31809 2.05322C4.96044 2.26322 4.67665 2.54711 4.46672 2.90489C4.2568 3.26267 4.15184 3.65156 4.15184 4.07156C4.15184 4.49156 4.2568 4.88044 4.46672 5.23822C4.67665 5.596 4.96044 5.87989 5.31809 6.08989C5.67574 6.29989 6.06449 6.40489 6.48434 6.40489ZM9.98309 12.5299L8.2687 13.4282L8.59525 11.5149L7.20741 10.1732L9.13172 9.89322L9.98309 8.15489L10.8461 9.89322L12.7588 10.1732L11.3709 11.5149L11.6975 13.4282L9.98309 12.5299Z" fill="#0D9488"/>
</svg>
