<svg width="21" height="20" viewBox="0 0 21 20" fill="none" xmlns="http://www.w3.org/2000/svg">
<path d="M7.9147 1.66665V3.33331H12.9135V1.66665H14.5797V3.33331H17.9122C18.1455 3.33331 18.3426 3.41387 18.5037 3.57498C18.6648 3.73609 18.7453 3.93331 18.7453 4.16665V17.5C18.7453 17.7333 18.6648 17.9305 18.5037 18.0916C18.3426 18.2528 18.1455 18.3333 17.9122 18.3333H2.91595C2.68267 18.3333 2.4855 18.2528 2.32443 18.0916C2.16336 17.9305 2.08282 17.7333 2.08282 17.5V4.16665C2.08282 3.93331 2.16336 3.73609 2.32443 3.57498C2.4855 3.41387 2.68267 3.33331 2.91595 3.33331H6.24845V1.66665H7.9147ZM17.0791 9.16665H3.74907V16.6666H17.0791V9.16665ZM12.9468 10.1166L14.1132 11.3L9.99751 15.4166L7.04825 12.4666L8.23129 11.3L9.99751 13.0666L12.9468 10.1166ZM6.24845 4.99998H3.74907V7.49998H17.0791V4.99998H14.5797V5.83331H12.9135V4.99998H7.9147V5.83331H6.24845V4.99998Z" fill="#E11D48"/>
</svg>
