<svg width="13" height="12" viewBox="0 0 13 12" fill="none" xmlns="http://www.w3.org/2000/svg">
<path d="M1.75 1.5H10.75C10.89 1.5 11.0083 1.54833 11.105 1.645C11.2017 1.74167 11.25 1.86 11.25 2V10C11.25 10.14 11.2017 10.2583 11.105 10.355C11.0083 10.4517 10.89 10.5 10.75 10.5H1.75C1.61 10.5 1.49167 10.4517 1.395 10.355C1.29833 10.2583 1.25 10.14 1.25 10V2C1.25 1.86 1.29833 1.74167 1.395 1.645C1.49167 1.54833 1.61 1.5 1.75 1.5ZM2.25 2.5V9.5H10.25V2.5H2.25ZM3.75 6.5H4.75V8.5H3.75V6.5ZM5.75 3.5H6.75V8.5H5.75V3.5ZM7.75 5H8.75V8.5H7.75V5Z" fill="#9CA3AF"/>
</svg>
